<svg xmlns="http://www.w3.org/2000/svg" width="10.655" height="10.562" viewBox="0 0 10.655 10.562">
  <path id="rocket_launch_FILL0_wght400_GRAD0_opsz48" d="M5.228,8.394l1.4.594q.237-.475.508-.937t.574-.884L6.666,6.956ZM7.26,9.463l1.755,1.755a10.371,10.371,0,0,0,1.412-.778,6.861,6.861,0,0,0,1.069-.844,7.423,7.423,0,0,0,1.57-2.19,6.605,6.605,0,0,0,.541-2.533,6.605,6.605,0,0,0-2.533.541,7.423,7.423,0,0,0-2.19,1.57,6.861,6.861,0,0,0-.844,1.069A10.371,10.371,0,0,0,7.26,9.463ZM10.281,8.2a.94.94,0,1,1,.653.264A.887.887,0,0,1,10.281,8.2Zm-.2,5.053,1.438-1.438-.211-1.042q-.422.3-.884.574t-.937.508Zm4.3-9.156a7.628,7.628,0,0,1-.449,3.272,8.02,8.02,0,0,1-1.874,2.784l-.026.026-.026.026.29,1.451a.75.75,0,0,1-.02.383.815.815,0,0,1-.2.33L9.819,14.635,8.7,12.023,6.455,9.78,3.842,8.658,6.112,6.4a.815.815,0,0,1,.33-.2.75.75,0,0,1,.383-.02l1.451.29a.1.1,0,0,1,.026-.02.1.1,0,0,0,.026-.02,8.1,8.1,0,0,1,2.784-1.88,7.561,7.561,0,0,1,3.272-.455ZM4.726,11.376a1.558,1.558,0,0,1,1.128-.468,1.555,1.555,0,0,1,1.583,1.583,1.558,1.558,0,0,1-.468,1.128,2.574,2.574,0,0,1-1.062.567,14.377,14.377,0,0,1-2.157.422,15.406,15.406,0,0,1,.416-2.164,2.525,2.525,0,0,1,.561-1.069Zm.554.567a1.748,1.748,0,0,0-.33.62A6.635,6.635,0,0,0,4.7,13.645a6.635,6.635,0,0,0,1.082-.251,1.748,1.748,0,0,0,.62-.33.742.742,0,0,0,.257-.561.79.79,0,0,0-.818-.818.742.742,0,0,0-.561.257Z" transform="translate(-3.75 -4.073)" fill="#9f9f9f"/>
</svg>
