<svg xmlns="http://www.w3.org/2000/svg" width="219.271" height="188" viewBox="0 0 219.271 188">
  <g id="Hello-rafiki" transform="translate(-56.1 -95.006)">
    <g id="freepik--Shadow--inject-97" transform="translate(56.1 270.227)">
      <ellipse id="freepik--path--inject-97" cx="109.636" cy="6.389" rx="109.636" ry="6.389" transform="translate(0 0)" fill="#f5f5f5"/>
    </g>
    <g id="freepik--character-2--inject-97" transform="translate(191.482 95.006)">
      <path id="Trazado_167" data-name="Trazado 167" d="M346.4,108.577c-1.187-1.187-3.506-5.767-1.3-7.916s4.184-.17,4.354.848S349.224,111.347,346.4,108.577Z" transform="translate(-316.675 -97.045)" fill="#263238"/>
      <path id="Trazado_168" data-name="Trazado 168" d="M342.289,396.648l-5.032.057L335.9,385.057l5.032-.057Z" transform="translate(-313.076 -221.031)" fill="#ff8b7b"/>
      <path id="Trazado_169" data-name="Trazado 169" d="M330.082,404.657l5.485-.057a.43.43,0,0,1,.452.339l1.357,4.467a.658.658,0,0,1-.452.848c-.057,0-.17.057-.226.057-1.979,0-4.863-.113-7.351-.057-2.94,0-4.241.226-7.633.226-2.092,0-2.827-2.092-1.979-2.262,3.9-.9,5.88-1.018,9.16-3.166A2.29,2.29,0,0,1,330.082,404.657Z" transform="translate(-305.901 -229.548)" fill="#263238"/>
      <path id="Trazado_170" data-name="Trazado 170" d="M335.9,385.057l.678,5.993h5.089l-.735-6.05Z" transform="translate(-313.076 -221.031)" opacity="0.2"/>
      <path id="Trazado_171" data-name="Trazado 171" d="M333.514,405.291a5.466,5.466,0,0,0,1.64-.226.122.122,0,0,0,.113-.113c0-.057,0-.113-.057-.113-.226-.113-2.375-1.131-2.94-.792a.342.342,0,0,0-.17.339.7.7,0,0,0,.283.565A1.588,1.588,0,0,0,333.514,405.291Zm1.244-.4a3.407,3.407,0,0,1-2.262-.113.513.513,0,0,1-.17-.4c0-.057,0-.113.057-.113C332.665,404.1,333.853,404.556,334.758,404.9Z" transform="translate(-311.425 -229.278)" fill="#8a6caa"/>
      <path id="Trazado_172" data-name="Trazado 172" d="M335.921,404.258h.057c.057,0,.057-.057.057-.113,0-.113-.4-2.262-1.583-2.149a.509.509,0,0,0-.452.339c-.057.565,1.244,1.64,1.922,1.922Zm-1.357-2.036c.735,0,1.074,1.187,1.187,1.7-.678-.4-1.527-1.244-1.47-1.583,0,0,0-.113.226-.113Z" transform="translate(-312.249 -228.415)" fill="#8a6caa"/>
      <path id="Trazado_173" data-name="Trazado 173" d="M321.185,151.969l-.509.565-.509.509c-.339.339-.679.622-1.018.9q-1.018.933-2.036,1.7a38.36,38.36,0,0,1-4.41,3.053c-.792.452-1.583.9-2.375,1.3a26.485,26.485,0,0,1-2.544,1.131,26.19,26.19,0,0,1-5.485,1.47l-.4.057a4.279,4.279,0,0,1-.848.057,4.9,4.9,0,0,1-1.809-.339,4.743,4.743,0,0,1-1.583-1.018,6.777,6.777,0,0,1-.961-1.187,8.518,8.518,0,0,1-.792-1.979,16.57,16.57,0,0,1-.283-1.64,16.38,16.38,0,0,1-.057-2.884c.057-.9.113-1.809.226-2.658a50.381,50.381,0,0,1,.9-5.089A48.655,48.655,0,0,1,298.059,141l3.732.735c-.113,3.166-.283,6.446-.17,9.5a21.62,21.62,0,0,0,.452,4.241,2.8,2.8,0,0,0,.226.735c.057.17.17.339.17.283a.781.781,0,0,0-.17-.226,1.335,1.335,0,0,0-.509-.339,2.549,2.549,0,0,0-.622-.17H301l.113-.057a18.919,18.919,0,0,0,3.9-1.414,36.077,36.077,0,0,0,3.788-2.149c1.244-.792,2.431-1.7,3.619-2.6.565-.452,1.131-.961,1.7-1.47l.848-.735.4-.339.339-.339Z" transform="translate(-295.534 -114.994)" fill="#ff8b7b"/>
      <path id="Trazado_174" data-name="Trazado 174" d="M333.119,152.724c-.17-5.315-4.58-7.181-10.065-3.562a67.993,67.993,0,0,0-6.955,5.032l3.562,11.365s6.785-2.149,10.686-6.389C333.006,156.286,333.232,154.533,333.119,152.724Z" transform="translate(-304.472 -117.727)" fill="#263238"/>
      <path id="Trazado_175" data-name="Trazado 175" d="M331.01,160.9a32.066,32.066,0,0,0-4.41,9.669,36.184,36.184,0,0,0,4.636-2.431Z" transform="translate(-309.035 -123.642)" opacity="0.2"/>
      <path id="Trazado_176" data-name="Trazado 176" d="M303.226,140.88l1.922-4.3L299.776,135a11,11,0,0,0-.4,5.6Z" transform="translate(-297.138 -112.386)" fill="#ff8b7b"/>
      <path id="Trazado_177" data-name="Trazado 177" d="M306.037,128.9l-4.636.565-1.3,2.884,5.372,1.583Z" transform="translate(-297.518 -109.735)" fill="#ff8b7b"/>
      <path id="Trazado_178" data-name="Trazado 178" d="M331.519,225.083s-3.449,29.119-3.845,44.668c-.4,16.171,2.771,48.8,2.771,48.8l9.1-.17s1.074-34.943,2.431-50.945c1.414-17.472,5.032-42.633,5.032-42.633Z" transform="translate(-309.486 -151.411)" fill="#8a6caa"/>
      <path id="Trazado_179" data-name="Trazado 179" d="M331.519,225.083s-3.449,29.119-3.845,44.668c-.4,16.171,2.771,48.8,2.771,48.8l9.1-.17s1.074-34.943,2.431-50.945c1.414-17.472,5.032-42.633,5.032-42.633Z" transform="translate(-309.486 -151.411)" fill="#fff" opacity="0.6"/>
      <path id="Trazado_180" data-name="Trazado 180" d="M351.6,238.117c-4.071,8.99-3,29.006-.678,37.6.057-1.244.17-2.431.283-3.506.961-11.478,2.827-26.349,4.015-35.169C354.084,235.459,352.84,235.346,351.6,238.117Z" transform="translate(-318.708 -156.247)" opacity="0.2"/>
      <path id="Trazado_181" data-name="Trazado 181" d="M341.835,388.336l-10.743.226L330.3,385h11.365Z" transform="translate(-310.643 -221.031)" fill="#8a6caa"/>
      <path id="Trazado_182" data-name="Trazado 182" d="M382.089,396.648l-5.032.057L375.7,385.057l5.032-.057Z" transform="translate(-330.372 -221.031)" fill="#ff8b7b"/>
      <path id="Trazado_183" data-name="Trazado 183" d="M369.925,404.657l5.541-.057a.43.43,0,0,1,.452.339l1.357,4.467a.658.658,0,0,1-.452.848c-.057,0-.17.057-.226.057-1.979,0-4.863-.113-7.35-.057-2.94,0-4.241.226-7.633.226-2.092,0-2.827-2.092-1.979-2.262,3.9-.9,5.88-1.018,9.16-3.166A1.954,1.954,0,0,1,369.925,404.657Z" transform="translate(-323.241 -229.548)" fill="#263238"/>
      <path id="Trazado_184" data-name="Trazado 184" d="M375.7,385.057l.678,5.993h5.089l-.735-6.05Z" transform="translate(-330.372 -221.031)" opacity="0.2"/>
      <path id="Trazado_185" data-name="Trazado 185" d="M373.314,405.291a5.466,5.466,0,0,0,1.64-.226.122.122,0,0,0,.113-.113c0-.057,0-.113-.057-.113-.226-.113-2.375-1.131-2.94-.792a.342.342,0,0,0-.17.339.7.7,0,0,0,.283.565A1.589,1.589,0,0,0,373.314,405.291Zm1.244-.4a3.407,3.407,0,0,1-2.262-.113.513.513,0,0,1-.17-.4c0-.057,0-.113.057-.113.283-.17,1.47.283,2.375.622Z" transform="translate(-328.721 -229.278)" fill="#8a6caa"/>
      <path id="Trazado_186" data-name="Trazado 186" d="M375.721,404.258a.122.122,0,0,0,.113-.113h0c0-.113-.4-2.262-1.583-2.149a.509.509,0,0,0-.452.339c-.057.565,1.244,1.64,1.922,1.922Zm-1.357-2.036c.735,0,1.074,1.187,1.187,1.7-.678-.4-1.583-1.244-1.527-1.583,0,0,0-.113.226-.113Z" transform="translate(-329.545 -228.415)" fill="#8a6caa"/>
      <path id="Trazado_187" data-name="Trazado 187" d="M350.2,224.6s2.544,31.324,4.354,46.761c1.922,16.058,8.2,46.874,8.2,46.874l9.1-.17s-2.488-35-3.449-51.058c-1.074-17.472-1.357-42.8-1.357-42.8Z" transform="translate(-319.291 -151.151)" fill="#8a6caa"/>
      <path id="Trazado_188" data-name="Trazado 188" d="M350.2,224.6s2.544,31.324,4.354,46.761c1.922,16.058,8.2,46.874,8.2,46.874l9.1-.17s-2.488-35-3.449-51.058c-1.074-17.472-1.357-42.8-1.357-42.8Z" transform="translate(-319.291 -151.151)" fill="#fff" opacity="0.6"/>
      <path id="Trazado_189" data-name="Trazado 189" d="M381.635,388.336l-10.743.226L370.1,385h11.365Z" transform="translate(-327.939 -221.031)" fill="#8a6caa"/>
      <path id="Trazado_190" data-name="Trazado 190" d="M332.256,146.711s-3.732,13.853.622,43.594c8.142-.17,21.769-.509,25.727-.565.113-4.128-2.94-24.483.622-44.046a52.035,52.035,0,0,0-7.8-.735,111.1,111.1,0,0,0-11.478.226A57.817,57.817,0,0,0,332.256,146.711Z" transform="translate(-310.846 -116.69)" fill="#263238"/>
      <path id="Trazado_191" data-name="Trazado 191" d="M375.041,168.306,370.8,164.8c.283,2.714,2.771,9.386,4.014,12.779C374.871,174.638,374.871,171.529,375.041,168.306Z" transform="translate(-328.243 -125.337)" opacity="0.2"/>
      <path id="Trazado_192" data-name="Trazado 192" d="M348.1,161.914l-4.58,9.1a1.014,1.014,0,0,0,.452,1.357.868.868,0,0,0,.9,0l3-1.64a1.05,1.05,0,0,1,1.074.057l2.94,2.149a.932.932,0,0,0,1.357-.226,1.04,1.04,0,0,0,.113-.9l-3.449-9.725a.992.992,0,0,0-1.244-.622A.9.9,0,0,0,348.1,161.914Z" transform="translate(-316.347 -123.865)" fill="#fff"/>
      <path id="Trazado_193" data-name="Trazado 193" d="M356.993,122.2c-.622,3.732-1.244,10.46,1.414,12.892,0,0-.792,3.336-7.8,4.523-4.693-1.527-3.675-4.241-3.675-4.241,4.071-1.074,3.9-4.128,3.166-6.955Z" transform="translate(-317.828 -106.824)" fill="#ff8b7b"/>
      <path id="Trazado_194" data-name="Trazado 194" d="M356.671,126.6l-4.071,3.619a12.93,12.93,0,0,1,.4,2.036c1.583-.283,3.675-2.036,3.845-3.675A6,6,0,0,0,356.671,126.6Z" transform="translate(-320.334 -108.736)" opacity="0.2"/>
      <path id="Trazado_195" data-name="Trazado 195" d="M357.194,107.365c-1.357,4.806-1.922,7.69-4.919,9.669-4.523,2.94-10.065-.565-10.178-5.711-.113-4.636,2.149-11.7,7.351-12.609a6.808,6.808,0,0,1,7.916,5.541A7.243,7.243,0,0,1,357.194,107.365Z" transform="translate(-315.768 -96.569)" fill="#ff8b7b"/>
      <path id="Trazado_196" data-name="Trazado 196" d="M363.331,113.035c-.622-1.527-1.074-6.615,1.527-7.859s5.371,1.809,4.693,3.223C368.476,110.661,364.8,116.6,363.331,113.035Z" transform="translate(-324.788 -99.299)" fill="#263238"/>
      <path id="Trazado_197" data-name="Trazado 197" d="M359.045,103.666c-.622-1.7-8.425-2.657-9.5-4.467-1.3-2.149,4.015-2.431,7.633-1.3,3.166.961,5.315,1.922,4.976,4.3C361.929,103.5,359.045,103.666,359.045,103.666Z" transform="translate(-318.919 -95.98)" fill="#263238"/>
      <path id="Trazado_198" data-name="Trazado 198" d="M369.4,104.892a2.569,2.569,0,0,0,2.6-.792C371.718,105.344,370.3,106.588,369.4,104.892Z" transform="translate(-327.635 -98.958)" fill="#263238"/>
      <path id="Trazado_199" data-name="Trazado 199" d="M351.688,95.681a3.249,3.249,0,0,0-5.2,2.657c.283,2.318,8.142,4.128,8.142,4.128S354.8,98.112,351.688,95.681Z" transform="translate(-317.669 -95.006)" fill="#263238"/>
      <path id="Trazado_200" data-name="Trazado 200" d="M346.5,100.826c.339,1.64,1.583,2.94,4.015,3.9a8.551,8.551,0,0,1-3.053-4.128Z" transform="translate(-317.683 -97.437)" fill="#263238"/>
      <path id="Trazado_201" data-name="Trazado 201" d="M354.45,113.043c-.057.4-.339.678-.622.622s-.4-.452-.339-.848.339-.679.622-.622S354.507,112.647,354.45,113.043Z" transform="translate(-320.714 -102.472)" fill="#263238"/>
      <path id="Trazado_202" data-name="Trazado 202" d="M346.45,111.287c-.113.4-.339.679-.622.622s-.4-.452-.339-.792.339-.679.622-.622S346.563,110.891,346.45,111.287Z" transform="translate(-317.237 -101.734)" fill="#263238"/>
      <path id="Trazado_203" data-name="Trazado 203" d="M347.658,112.8a14.856,14.856,0,0,1-2.658,3,2.459,2.459,0,0,0,1.809.792Z" transform="translate(-317.031 -102.739)" fill="#ff5652"/>
      <path id="Trazado_204" data-name="Trazado 204" d="M349.813,121.172h0a3.349,3.349,0,0,0,3.053-.735.106.106,0,0,0,0-.17h0a.106.106,0,0,0-.17,0,3.2,3.2,0,0,1-2.827.679c-.057,0-.113,0-.17.113,0,0,0,.057.113.113Z" transform="translate(-319.073 -105.965)" fill="#263238"/>
      <path id="Trazado_205" data-name="Trazado 205" d="M356.8,110.3c.113,0,.283-.057.283-.17v-.17a2.308,2.308,0,0,0-1.7-1.357.289.289,0,0,0-.283.226.311.311,0,0,0,.17.283h0a2.014,2.014,0,0,1,1.357,1.074C356.683,110.24,356.74,110.3,356.8,110.3Z" transform="translate(-321.42 -100.914)" fill="#263238"/>
      <path id="Trazado_206" data-name="Trazado 206" d="M344.141,107.314c.113,0,.17,0,.226-.113a1.877,1.877,0,0,1,1.527-.792.289.289,0,0,0,.283-.226c.057-.17-.057-.226-.226-.283a2.412,2.412,0,0,0-1.979.961.266.266,0,0,0,.057.339h0C344.085,107.314,344.141,107.314,344.141,107.314Z" transform="translate(-316.568 -99.74)" fill="#263238"/>
      <path id="Trazado_207" data-name="Trazado 207" d="M377.564,153.2c1.018,1.809,1.866,3.562,2.771,5.315s1.7,3.619,2.488,5.428,1.527,3.732,2.149,5.654a53.642,53.642,0,0,1,1.7,5.88l.339,1.527a7.274,7.274,0,0,1,.17,2.205,11.188,11.188,0,0,1-.9,4.015,17.471,17.471,0,0,1-4.014,5.654,32.413,32.413,0,0,1-4.919,3.9c-.848.565-1.753,1.074-2.6,1.583a25.3,25.3,0,0,1-2.771,1.414L370.1,192.5c.679-.565,1.414-1.131,2.149-1.753s1.414-1.244,2.036-1.866a33.617,33.617,0,0,0,3.619-3.9,13.381,13.381,0,0,0,2.262-4.015,5.837,5.837,0,0,0,.226-1.7,2.838,2.838,0,0,0-.113-.678l-.4-1.244a84.605,84.605,0,0,0-4.071-10.291c-.792-1.7-1.583-3.393-2.431-5.089s-1.7-3.393-2.544-5.032Z" transform="translate(-327.939 -120.296)" fill="#ff8b7b"/>
      <path id="Trazado_208" data-name="Trazado 208" d="M375.783,146.29c4.693,1.018,7.972,13.344,7.972,13.344l-8.425,7.633a33.1,33.1,0,0,1-6.22-10.178C366.906,150.927,370.751,145.159,375.783,146.29Z" transform="translate(-327.233 -117.231)" fill="#263238"/>
      <path id="Trazado_209" data-name="Trazado 209" d="M367.728,221.7l-5.428.057,3.393,5.485s3.845-.961,4.184-2.884Z" transform="translate(-324.549 -150.064)" fill="#ff8b7b"/>
      <path id="Trazado_210" data-name="Trazado 210" d="M356.3,225.023l3,4.354,3.732-2.149-3.336-5.428Z" transform="translate(-321.942 -150.108)" fill="#ff8b7b"/>
      <path id="Trazado_211" data-name="Trazado 211" d="M367.613,119.409a4.981,4.981,0,0,1-2.827,2.318c-1.583.452-2.431-.961-1.979-2.488.4-1.357,1.7-3.279,3.279-3.053A2.127,2.127,0,0,1,367.613,119.409Z" transform="translate(-324.717 -104.202)" fill="#ff8b7b"/>
    </g>
    <g id="freepik--Hello--inject-97" transform="translate(110.59 136.996)">
      <rect id="Rect치ngulo_397" data-name="Rect치ngulo 397" width="6.05" height="0.565" transform="translate(69.724 67.185) rotate(-4.15)" fill="#8a6caa"/>
      <rect id="Rect치ngulo_398" data-name="Rect치ngulo 398" width="2.94" height="0.565" transform="translate(78.201 66.565) rotate(-4.15)" fill="#8a6caa"/>
      <path id="Trazado_212" data-name="Trazado 212" d="M259.635,169.287l-99.854,7.181a7.939,7.939,0,0,0-7.294,8.425l3.393,47.043a7.9,7.9,0,0,0,8.425,7.294l5.654-.4a1.525,1.525,0,0,1,1.64,1.414l.622,8.708a.869.869,0,0,0,.9.792.908.908,0,0,0,.622-.283l9.443-10.969a2.38,2.38,0,0,1,1.583-.792l79.385-5.654a7.9,7.9,0,0,0,7.294-8.425l-3.393-47.043A7.9,7.9,0,0,0,259.635,169.287Z" transform="translate(-152.47 -169.269)" fill="#8a6caa"/>
      <g id="Grupo_524" data-name="Grupo 524" transform="translate(17.489 20.146)">
        <path id="Trazado_213" data-name="Trazado 213" d="M204.886,212.5l1.527,22.56-6.389.452-.622-8.821-8.707.622.622,8.821-6.389.452-1.527-22.56,6.389-.452.565,8.481,8.708-.622-.565-8.481Z" transform="translate(-183.4 -208.203)" fill="#fff"/>
        <path id="Trazado_214" data-name="Trazado 214" d="M228.584,229.045c-.339-5.258,3.562-9.273,9.273-9.669,5.767-.4,10.121,3.053,10.46,8.312s-3.449,9.329-9.216,9.725C233.39,237.809,228.98,234.36,228.584,229.045Zm13.57-.9c-.17-2.658-1.866-4.015-3.958-3.9-2.036.113-3.562,1.753-3.393,4.354.17,2.657,1.922,4.071,3.958,3.958C240.854,232.438,242.324,230.8,242.154,228.14Z" transform="translate(-203.027 -211.178)" fill="#fff"/>
        <path id="Trazado_215" data-name="Trazado 215" d="M266.7,206.7l6.107-.4,1.64,23.917-6.107.4Z" transform="translate(-219.6 -205.508)" fill="#fff"/>
        <path id="Trazado_216" data-name="Trazado 216" d="M302.064,223.173l.679,9.725-5.711.4-.17-2.262c-.735,1.753-2.431,2.714-4.976,2.884-4.184.283-6.672-1.922-6.9-4.919-.226-3.223,1.979-5.372,7.407-5.767L295.9,223c-.226-1.753-1.47-2.657-3.9-2.544a8.118,8.118,0,0,0-4.636,1.866l-2.375-4.015a14.433,14.433,0,0,1,7.577-2.544C298.275,215.37,301.668,217.632,302.064,223.173ZM296.24,227.7l-.113-1.527-2.657.17c-1.979.113-2.6.9-2.544,1.979.057,1.018.961,1.7,2.431,1.64A3.126,3.126,0,0,0,296.24,227.7Z" transform="translate(-227.541 -209.603)" fill="#fff"/>
        <path id="Trazado_217" data-name="Trazado 217" d="M319.2,205.409l7.294-.509-.226,14.418-4.919.339Zm1.3,19.451a3.379,3.379,0,0,1,3.449-3.562,3.341,3.341,0,0,1,3.845,3.053,3.668,3.668,0,0,1-7.294.509Z" transform="translate(-242.415 -204.9)" fill="#fff"/>
      </g>
      <path id="Trazado_218" data-name="Trazado 218" d="M159.781,180.74a7.939,7.939,0,0,0-7.294,8.425l3.393,47.043A7.9,7.9,0,0,0,164.3,243.5l.848-.057a6.312,6.312,0,0,0,5.711-5.089L182.228,179.1Z" transform="translate(-152.47 -173.542)" opacity="0.2"/>
    </g>
    <g id="freepik--character-1--inject-97" transform="translate(74.239 109.476)">
      <path id="Trazado_219" data-name="Trazado 219" d="M147.775,139.823a18.325,18.325,0,0,0,.113,2.488A32.973,32.973,0,0,1,132,143.555a13.236,13.236,0,0,0,.452-2.94,8.784,8.784,0,0,1-1.018,2.884,14.247,14.247,0,0,1-1.583-.339s1.018-5.541-.848-9.612-.9-6.333.452-6.955c2.6-7.972,12.383-6.729,15.662-3.506,4.184,4.128,4.241,15.719,4.976,18.376-.622.283-1.244.509-1.809.735A8.931,8.931,0,0,1,147.775,139.823Z" transform="translate(-105.469 -120.598)" fill="#263238"/>
      <path id="Trazado_220" data-name="Trazado 220" d="M166.667,176.6l.509,1.64c.17.565.4,1.131.565,1.64.4,1.131.792,2.262,1.187,3.336s.848,2.205,1.244,3.336l.678,1.7.17.4.057.113h0a.429.429,0,0,0-.226-.113c-.113-.057-.17,0-.113,0a.962.962,0,0,0,.4-.057,4.95,4.95,0,0,0,1.244-.565,29.692,29.692,0,0,0,2.771-1.866c.9-.735,1.809-1.47,2.714-2.262s1.753-1.583,2.6-2.431l1.753,1.47c-.735,1.018-1.47,1.979-2.262,2.94s-1.64,1.866-2.544,2.771a18.308,18.308,0,0,1-3,2.544,8.362,8.362,0,0,1-1.979,1.074,5.964,5.964,0,0,1-1.357.339,4.15,4.15,0,0,1-1.866-.226,3.933,3.933,0,0,1-1.583-1.3c-.057-.113-.17-.283-.226-.4l-.17-.283-.226-.4c-.283-.565-.565-1.131-.792-1.64-.509-1.131-1.018-2.262-1.47-3.393s-.9-2.318-1.357-3.449c-.226-.565-.4-1.187-.622-1.753a14.579,14.579,0,0,1-.565-1.866Z" transform="translate(-120.347 -144.935)" fill="#ffc3bd"/>
      <path id="Trazado_221" data-name="Trazado 221" d="M163.237,167.45c1.922.509,3.336,8.538,3.336,8.538l-5.372,3.675s-5.145-8.086-3.619-10.234C159.053,167.168,160.41,166.715,163.237,167.45Z" transform="translate(-118.218 -140.818)" fill="#8a6caa"/>
      <path id="Trazado_222" data-name="Trazado 222" d="M163.237,167.45c1.922.509,3.336,8.538,3.336,8.538l-5.372,3.675s-5.145-8.086-3.619-10.234C159.053,167.168,160.41,166.715,163.237,167.45Z" transform="translate(-118.218 -140.818)" fill="#8a6caa"/>
      <path id="Trazado_223" data-name="Trazado 223" d="M163.237,167.45c1.922.509,3.336,8.538,3.336,8.538l-5.372,3.675s-5.145-8.086-3.619-10.234C159.053,167.168,160.41,166.715,163.237,167.45Z" transform="translate(-118.218 -140.818)" fill="#fff" opacity="0.4"/>
      <path id="Trazado_224" data-name="Trazado 224" d="M166.327,170.9l1.47,8.086-3,2.036Z" transform="translate(-121.477 -142.458)" opacity="0.3"/>
      <path id="Trazado_225" data-name="Trazado 225" d="M194.4,182.2l1.809-4.3,2.205,4.3s-1.414,2.149-3.336,1.64Z" transform="translate(-134.341 -145.5)" fill="#ffc3bd"/>
      <path id="Trazado_226" data-name="Trazado 226" d="M199.579,177.1l2.827,1.131-2.6,3.619-2.205-4.3Z" transform="translate(-135.731 -145.152)" fill="#ffc3bd"/>
      <path id="Trazado_227" data-name="Trazado 227" d="M149.1,398.069h4.75l.339-10.969h-4.75Z" transform="translate(-114.654 -236.413)" fill="#ffc3bd"/>
      <path id="Trazado_228" data-name="Trazado 228" d="M93,374.2l4.354,1.866,5.711-9.5L98.711,364.7Z" transform="translate(-90.275 -226.679)" fill="#ffc3bd"/>
      <path id="Trazado_229" data-name="Trazado 229" d="M96.107,381.423l-4.523-2.771a.421.421,0,0,0-.509.057l-2.714,3.279a.74.74,0,0,0,.113,1.074.2.2,0,0,0,.113.057c1.583.961,2.431,1.3,4.41,2.544,1.244.735,2.94,1.979,4.636,3s2.827-.565,2.205-1.131a9.215,9.215,0,0,1-3.166-5.428A2.263,2.263,0,0,0,96.107,381.423Z" transform="translate(-88.18 -232.715)" fill="#263238"/>
      <path id="Trazado_230" data-name="Trazado 230" d="M152.927,405.5h-5.315a.413.413,0,0,0-.4.339l-.622,4.184a.758.758,0,0,0,.622.848h.113c1.866,0,2.771-.113,5.089-.113,1.414,0,4.41.17,6.389.17s2.092-1.979,1.244-2.149a12.793,12.793,0,0,1-6.389-2.94A.912.912,0,0,0,152.927,405.5Z" transform="translate(-113.562 -244.41)" fill="#263238"/>
      <path id="Trazado_231" data-name="Trazado 231" d="M154.319,387.1l-.17,5.654H149.4l.17-5.654Z" transform="translate(-114.785 -236.413)" opacity="0.2"/>
      <path id="Trazado_232" data-name="Trazado 232" d="M100.84,364.8l4.354,1.809-2.94,4.919L97.9,369.663Z" transform="translate(-92.404 -226.722)" opacity="0.2"/>
      <path id="Trazado_233" data-name="Trazado 233" d="M148.679,166.657s2.262.792-2.262,28.554H127.193c.339-7.8.339-12.609-3.393-28.667a57.366,57.366,0,0,1,8.142-1.074,55.959,55.959,0,0,1,8.708,0C144.438,165.809,148.679,166.657,148.679,166.657Z" transform="translate(-103.66 -140.024)" fill="#8a6caa"/>
      <path id="Trazado_234" data-name="Trazado 234" d="M148.679,166.657s2.262.792-2.262,28.554H127.193c.339-7.8.339-12.609-3.393-28.667a57.366,57.366,0,0,1,8.142-1.074,55.959,55.959,0,0,1,8.708,0C144.438,165.809,148.679,166.657,148.679,166.657Z" transform="translate(-103.66 -140.024)" fill="#fff" opacity="0.4"/>
      <path id="Trazado_235" data-name="Trazado 235" d="M137.374,165.47a55.959,55.959,0,0,1,8.708,0c.452.057.961.113,1.414.17a2.373,2.373,0,0,1,.283,2.036c-.622,1.527-2.827,1.7-4.41,1.7-5.937,0-6.955-3.449-7.011-3.619l-.057-.226Z" transform="translate(-109.092 -140.024)" fill="#fff"/>
      <path id="Trazado_236" data-name="Trazado 236" d="M139.148,148.2c.565,2.827,1.074,7.972-.848,9.838,0,0,.792,2.827,5.993,2.827,5.711,0,2.771-2.827,2.771-2.827-3.11-.735-3.053-3.053-2.488-5.258Z" transform="translate(-109.961 -132.593)" fill="#ffc3bd"/>
      <path id="Trazado_237" data-name="Trazado 237" d="M139.236,144.7c-.678,2.205.283,7.464,1.64,9.5-2.714-1.583-3.675-6.333-3.675-6.333Z" transform="translate(-109.483 -131.072)" fill="#263238"/>
      <path id="Trazado_238" data-name="Trazado 238" d="M143.528,151.5l3.166,2.714a14.461,14.461,0,0,0-.283,1.527c-1.187-.17-2.827-1.47-2.94-2.714A4.621,4.621,0,0,1,143.528,151.5Z" transform="translate(-112.192 -134.027)" opacity="0.2"/>
      <path id="Trazado_239" data-name="Trazado 239" d="M135.031,133.292c1.074,4.58,1.47,6.5,4.184,8.481,4.128,2.94,9.5.622,9.782-4.184.283-4.3-1.583-11.082-6.389-12.1a6.438,6.438,0,0,0-7.633,4.863A5.761,5.761,0,0,0,135.031,133.292Z" transform="translate(-108.445 -122.661)" fill="#ffc3bd"/>
      <path id="Trazado_240" data-name="Trazado 240" d="M152.979,218.2s3.732,36.413,3.393,50.832c-.339,14.984-5.824,49.192-5.824,49.192h-6.389s1.018-33.36.452-48.061C143.989,254.1,138.9,218.2,138.9,218.2Z" transform="translate(-110.222 -163.013)" fill="#8a6caa"/>
      <path id="Trazado_241" data-name="Trazado 241" d="M152.979,218.2s3.732,36.413,3.393,50.832c-.339,14.984-5.824,49.192-5.824,49.192h-6.389s1.018-33.36.452-48.061C143.989,254.1,138.9,218.2,138.9,218.2Z" transform="translate(-110.222 -163.013)" opacity="0.4"/>
      <path id="Trazado_242" data-name="Trazado 242" d="M147,393.457h7.464l.565-2.375L146.6,390.8Z" transform="translate(-113.568 -238.021)" fill="#8a6caa"/>
      <path id="Trazado_243" data-name="Trazado 243" d="M145.884,232.483c4.693,9.5.961,26.8-.735,33.247-.848-9.669-2.318-21.486-3.449-30.194C142.492,230.674,143.736,228.129,145.884,232.483Z" transform="translate(-111.438 -168.25)" opacity="0.2"/>
      <path id="Trazado_244" data-name="Trazado 244" d="M129.986,218.2s-4.354,37.883-7.633,50.04c-3.9,14.418-18.716,39.014-18.716,39.014L97.7,304.71s9.16-27.932,12.157-35.509c6.333-16.228.9-40.428,5.993-51Z" transform="translate(-92.317 -163.013)" fill="#8a6caa"/>
      <path id="Trazado_245" data-name="Trazado 245" d="M129.986,218.2s-4.354,37.883-7.633,50.04c-3.9,14.418-18.716,39.014-18.716,39.014L97.7,304.71s9.16-27.932,12.157-35.509c6.333-16.228.9-40.428,5.993-51Z" transform="translate(-92.317 -163.013)" opacity="0.4"/>
      <path id="Trazado_246" data-name="Trazado 246" d="M96.2,368.984l7.407,3.166,1.753-1.979L96.879,366.1Z" transform="translate(-91.665 -227.287)" fill="#8a6caa"/>
      <path id="Trazado_247" data-name="Trazado 247" d="M147.977,138.935a.663.663,0,0,0,.565.622c.226,0,.4-.4.339-.735s-.339-.622-.565-.622S147.864,138.539,147.977,138.935Z" transform="translate(-114.153 -128.247)" fill="#263238"/>
      <path id="Trazado_248" data-name="Trazado 248" d="M155.477,137.535a.663.663,0,0,0,.565.622c.226,0,.4-.4.339-.735s-.339-.622-.565-.622S155.364,137.2,155.477,137.535Z" transform="translate(-117.412 -127.639)" fill="#263238"/>
      <path id="Trazado_249" data-name="Trazado 249" d="M155.9,136.552l.848-.452S156.409,136.892,155.9,136.552Z" transform="translate(-117.609 -127.335)" fill="#263238"/>
      <path id="Trazado_250" data-name="Trazado 250" d="M153.7,139.6a10.783,10.783,0,0,0,1.753,2.149,1.791,1.791,0,0,1-1.3.509Z" transform="translate(-116.653 -128.856)" fill="#ed847e"/>
      <path id="Trazado_251" data-name="Trazado 251" d="M149.773,146.585a2.12,2.12,0,0,0,.622-.057.113.113,0,0,0,0-.226h-.057a3.06,3.06,0,0,1-2.6-.735.12.12,0,0,0-.17.17h0A3.02,3.02,0,0,0,149.773,146.585Z" transform="translate(-113.97 -131.43)" fill="#263238"/>
      <path id="Trazado_252" data-name="Trazado 252" d="M135.944,129.692c.113,1.187.339,2.375.565,3.562,0,0,2.827-3.562,3.279-5.485a10.746,10.746,0,0,1-.622,2.205s3.788-.848,4.184-3.336a13.143,13.143,0,0,1-.4,3.336s3.619-1.414,3.279-3.845-5.88-3.336-8.481-2.544a6.11,6.11,0,0,0-4.354,7.068c.735,3.619,2.205,4.976,2.205,4.976S134.587,132.01,135.944,129.692Z" transform="translate(-107.774 -121.775)" fill="#263238"/>
      <path id="Trazado_253" data-name="Trazado 253" d="M134.667,143.7a3.36,3.36,0,0,0,1.866,1.866c1.131.452,1.809-.509,1.583-1.64-.17-1.018-.961-2.488-2.149-2.431a1.52,1.52,0,0,0-1.47,1.583C134.554,143.308,134.611,143.534,134.667,143.7Z" transform="translate(-108.307 -129.68)" fill="#ffc3bd"/>
      <path id="Trazado_254" data-name="Trazado 254" d="M137.766,131.6c-.565,2.262.622,7.464,2.092,9.443-2.827-1.414-3.958-6.163-3.958-6.163Z" transform="translate(-108.918 -125.379)" fill="#263238"/>
      <path id="Trazado_255" data-name="Trazado 255" d="M145.109,135.983a.122.122,0,0,0,.113-.113,1.843,1.843,0,0,1,1.3-1.018.226.226,0,0,0,0-.452h0a2.176,2.176,0,0,0-1.64,1.244.207.207,0,0,0,.113.283C145,135.983,145.053,135.983,145.109,135.983Z" transform="translate(-112.812 -126.596)" fill="#263238"/>
      <path id="Trazado_256" data-name="Trazado 256" d="M156.711,133.225a.208.208,0,0,0,.17-.057.212.212,0,0,0,0-.339,2.433,2.433,0,0,0-1.922-.735.2.2,0,0,0-.17.283h0c0,.113.113.17.283.17a1.919,1.919,0,0,1,1.527.565A.122.122,0,0,0,156.711,133.225Z" transform="translate(-117.12 -125.591)" fill="#263238"/>
      <path id="Trazado_257" data-name="Trazado 257" d="M121.946,178.183c-.792,2.488-1.527,5.089-2.149,7.633a59.319,59.319,0,0,0-1.414,7.69l-.057.452v.339a3.732,3.732,0,0,0,.057.792,10.8,10.8,0,0,0,.339,1.866c.283,1.244.565,2.544.961,3.845s.735,2.6,1.074,3.9l1.131,3.9-2.092.848a76,76,0,0,1-3.449-7.577,41.888,41.888,0,0,1-1.414-4.015c-.226-.678-.4-1.414-.565-2.149-.057-.4-.113-.792-.17-1.244v-1.244a36.782,36.782,0,0,1,.4-4.3c.17-1.414.452-2.771.735-4.184a66.713,66.713,0,0,1,2.262-8.142Z" transform="translate(-99.488 -144.935)" fill="#ffc3bd"/>
      <path id="Trazado_258" data-name="Trazado 258" d="M120.541,167.416c-1.922.565-4.241,7.237-4.241,7.237l7.464,5.315s2.714-5.541,1.922-8.029C124.838,169.338,122.746,166.738,120.541,167.416Z" transform="translate(-100.4 -140.896)" fill="#8a6caa"/>
      <path id="Trazado_259" data-name="Trazado 259" d="M120.541,167.416c-1.922.565-4.241,7.237-4.241,7.237l7.464,5.315s2.714-5.541,1.922-8.029C124.838,169.338,122.746,166.738,120.541,167.416Z" transform="translate(-100.4 -140.896)" fill="#fff" opacity="0.4"/>
      <path id="Trazado_260" data-name="Trazado 260" d="M104.079,385.842a.683.683,0,0,0,.4-.4.483.483,0,0,0,0-.4c-.339-.509-2.036-.452-2.262-.452-.057,0-.057,0-.113.057v.113c.452.452,1.3,1.187,1.866,1.074Zm-1.583-1.018a3.657,3.657,0,0,1,1.809.339.106.106,0,0,1,0,.17.579.579,0,0,1-.339.283C103.627,385.729,103.061,385.39,102.5,384.825Z" transform="translate(-94.229 -235.325)" fill="#8a6caa"/>
      <path id="Trazado_261" data-name="Trazado 261" d="M102.948,383.74c.509-.17,1.074-.452,1.187-.792a.379.379,0,0,0-.17-.452.44.44,0,0,0-.452-.113c-.679.113-1.414,1.244-1.414,1.3v.113c0,.057.057.057.113.057A3.309,3.309,0,0,0,102.948,383.74Zm.565-1.131h.057a.424.424,0,0,1,.283.057c.113.113.113.17.113.226a2.425,2.425,0,0,1-1.527.735,2.67,2.67,0,0,1,1.074-1.018Z" transform="translate(-94.229 -234.354)" fill="#8a6caa"/>
      <path id="Trazado_262" data-name="Trazado 262" d="M159.709,405.975a1.626,1.626,0,0,0,1.131-.283.726.726,0,0,0,.226-.565.311.311,0,0,0-.17-.283c-.565-.339-2.488.622-2.657.735a.108.108,0,0,0-.057.17l.057.057A6.162,6.162,0,0,0,159.709,405.975Zm.848-.961a.34.34,0,0,1,.226.057c.057,0,.057.057.057.113,0,.113,0,.283-.113.339-.283.283-1.074.283-2.092.113A6.969,6.969,0,0,1,160.557,405.014Z" transform="translate(-118.591 -244.093)" fill="#8a6caa"/>
      <path id="Trazado_263" data-name="Trazado 263" d="M158.213,404.949h0c.622-.283,1.753-1.244,1.64-1.809,0-.113-.113-.283-.452-.339a1.14,1.14,0,0,0-.622.17,3.241,3.241,0,0,0-.678,1.809c0,.057,0,.057.057.113C158.213,405.005,158.213,405.005,158.213,404.949Zm1.131-1.866h.057c.226,0,.226.113.226.113.057.339-.678,1.131-1.3,1.47a2.662,2.662,0,0,1,.622-1.47,1.048,1.048,0,0,1,.4-.113Z" transform="translate(-118.566 -243.236)" fill="#8a6caa"/>
      <path id="Trazado_264" data-name="Trazado 264" d="M128.9,216.1l-.509,1.7c-.057.113.113.283.339.283h19.79c.17,0,.339-.057.339-.17l.17-1.7c0-.113-.113-.226-.339-.226H129.24A.272.272,0,0,0,128.9,216.1Z" transform="translate(-105.65 -162.04)" fill="#263238"/>
      <path id="Trazado_265" data-name="Trazado 265" d="M133.378,218.188h-.509c-.113,0-.17-.057-.17-.113l.226-2.262c0-.057.113-.113.226-.113h.509c.113,0,.17.057.17.113l-.226,2.262C133.6,218.131,133.492,218.188,133.378,218.188Z" transform="translate(-107.527 -161.927)" fill="#8a6caa"/>
      <path id="Trazado_266" data-name="Trazado 266" d="M133.378,218.188h-.509c-.113,0-.17-.057-.17-.113l.226-2.262c0-.057.113-.113.226-.113h.509c.113,0,.17.057.17.113l-.226,2.262C133.6,218.131,133.492,218.188,133.378,218.188Z" transform="translate(-107.527 -161.927)" opacity="0.4"/>
      <path id="Trazado_267" data-name="Trazado 267" d="M160.879,218.188h-.509c-.113,0-.17-.057-.17-.113l.226-2.262c0-.057.113-.113.226-.113h.509c.113,0,.17.057.17.113l-.226,2.262A.294.294,0,0,1,160.879,218.188Z" transform="translate(-119.478 -161.927)" fill="#8a6caa"/>
      <path id="Trazado_268" data-name="Trazado 268" d="M160.879,218.188h-.509c-.113,0-.17-.057-.17-.113l.226-2.262c0-.057.113-.113.226-.113h.509c.113,0,.17.057.17.113l-.226,2.262A.294.294,0,0,1,160.879,218.188Z" transform="translate(-119.478 -161.927)" opacity="0.4"/>
      <path id="Trazado_269" data-name="Trazado 269" d="M147.079,218.188h-.509c-.113,0-.17-.057-.17-.113l.226-2.262c0-.057.113-.113.226-.113h.509c.113,0,.17.057.17.113l-.226,2.262C147.3,218.131,147.192,218.188,147.079,218.188Z" transform="translate(-113.481 -161.927)" fill="#8a6caa"/>
      <path id="Trazado_270" data-name="Trazado 270" d="M147.079,218.188h-.509c-.113,0-.17-.057-.17-.113l.226-2.262c0-.057.113-.113.226-.113h.509c.113,0,.17.057.17.113l-.226,2.262C147.3,218.131,147.192,218.188,147.079,218.188Z" transform="translate(-113.481 -161.927)" opacity="0.4"/>
      <path id="Trazado_271" data-name="Trazado 271" d="M148.3,137.894l.848-.4C149.148,137.441,148.809,138.233,148.3,137.894Z" transform="translate(-114.307 -127.941)" fill="#263238"/>
      <path id="Trazado_272" data-name="Trazado 272" d="M125.914,232.1l4.071,3.11-4.693,1.018s-1.979-2.262-1.3-4.128Z" transform="translate(-103.681 -169.054)" fill="#ffc3bd"/>
      <path id="Trazado_273" data-name="Trazado 273" d="M131.707,241.445l-3.958.679L125.6,238l5.145-.4Z" transform="translate(-104.442 -171.444)" fill="#ffc3bd"/>
    </g>
  </g>
</svg>
