<svg width="647" height="662" viewBox="0 0 647 662" fill="none" xmlns="http://www.w3.org/2000/svg">
    <path d="M168.313 208.576V159.904H75.8651V137.44L176.377 7.55199H193.657V136.864H219.001V159.904H193.657V208.576H168.313ZM102.073 136.864H170.905V46.72L102.073 136.864ZM390.827 87.616C390.827 100.288 389.003 112 385.355 122.752C381.707 133.312 376.619 142.528 370.091 150.4C363.563 158.08 355.787 164.128 346.763 168.544C337.931 172.768 328.331 174.88 317.963 174.88C307.403 174.88 297.611 172.768 288.587 168.544C279.755 164.128 272.075 158.08 265.547 150.4C259.211 142.528 254.219 133.312 250.571 122.752C246.923 112 245.099 100.288 245.099 87.616C245.099 74.944 246.923 63.328 250.571 52.768C254.219 42.016 259.211 32.8 265.547 25.12C272.075 17.248 279.755 11.104 288.587 6.688C297.611 2.272 307.403 0.0639992 317.963 0.0639992C328.331 0.0639992 337.931 2.272 346.763 6.688C355.787 11.104 363.563 17.248 370.091 25.12C376.619 32.8 381.707 42.016 385.355 52.768C389.003 63.328 390.827 74.944 390.827 87.616ZM365.195 87.616C365.195 78.208 364.043 69.568 361.739 61.696C359.435 53.824 356.171 47.104 351.947 41.536C347.723 35.776 342.731 31.36 336.971 28.288C331.211 25.216 324.875 23.68 317.963 23.68C310.859 23.68 304.331 25.216 298.379 28.288C292.619 31.36 287.627 35.776 283.403 41.536C279.371 47.104 276.203 53.824 273.899 61.696C271.595 69.568 270.443 78.208 270.443 87.616C270.443 97.216 271.595 105.952 273.899 113.824C276.203 121.504 279.371 128.128 283.403 133.696C287.627 139.264 292.619 143.584 298.379 146.656C304.331 149.728 310.859 151.264 317.963 151.264C324.875 151.264 331.211 149.728 336.971 146.656C342.731 143.584 347.723 139.264 351.947 133.696C356.171 128.128 359.435 121.504 361.739 113.824C364.043 105.952 365.195 97.216 365.195 87.616ZM505.813 208.576V159.904H413.365V137.44L513.877 7.55199H531.157V136.864H556.501V159.904H531.157V208.576H505.813ZM439.573 136.864H508.405V46.72L439.573 136.864Z" fill="#F2F2F2"/>
    <g clipPath="url(#clip0)">
    <g opacity="0.4">
    <path opacity="0.4" d="M647 601.669H0V601.992H647V601.669Z" fill="#EBEBEB"/>
    <path opacity="0.4" d="M582.171 622.486H513.498V622.81H582.171V622.486Z" fill="#EBEBEB"/>
    <path opacity="0.4" d="M428.599 618.426H352.693V618.75H428.599V618.426Z" fill="#EBEBEB"/>
    <path opacity="0.4" d="M516.81 616.564H491.979V616.888H516.81V616.564Z" fill="#EBEBEB"/>
    <path opacity="0.4" d="M185.896 612.647H130.008V612.97H185.896V612.647Z" fill="#EBEBEB"/>
    <path opacity="0.4" d="M122.802 612.647H102.822V612.97H122.802V612.647Z" fill="#EBEBEB"/>
    <path opacity="0.4" d="M240.258 618.103H170.123V618.426H240.258V618.103Z" fill="#EBEBEB"/>
    <path opacity="0.4" d="M306.69 544.002H56.8321C52.756 544.002 49.4434 540.692 49.4434 536.619V185.664C49.4434 181.591 52.756 178.281 56.8321 178.281H306.703C310.78 178.281 314.092 181.591 314.092 185.664V536.619C314.079 540.692 310.767 544.002 306.69 544.002ZM56.8321 178.618C52.9372 178.618 49.7669 181.785 49.7669 185.677V536.632C49.7669 540.524 52.9372 543.692 56.8321 543.692H306.703C310.598 543.692 313.769 540.524 313.769 536.632V185.664C313.769 181.772 310.598 178.605 306.703 178.605H56.8321V178.618Z" fill="#EBEBEB"/>
    <path opacity="0.4" d="M586.582 544.002H336.711C332.635 544.002 329.322 540.692 329.322 536.619V185.664C329.322 181.591 332.635 178.281 336.711 178.281H586.582C590.659 178.281 593.971 181.591 593.971 185.664V536.619C593.971 540.692 590.659 544.002 586.582 544.002ZM336.711 178.618C332.816 178.618 329.646 181.785 329.646 185.677V536.632C329.646 540.524 332.816 543.692 336.711 543.692H586.582C590.477 543.692 593.648 540.524 593.648 536.632V185.664C593.648 181.772 590.477 178.605 586.582 178.605H336.711V178.618Z" fill="#EBEBEB"/>
    </g>
    <g opacity="0.8">
    <g opacity="0.8">
    <path opacity="0.8" d="M151.994 523.883H73.4222C69.7731 523.883 66.7969 520.897 66.7969 517.263V514.406C66.7969 510.76 69.786 507.786 73.4222 507.786H151.994C155.643 507.786 158.619 510.772 158.619 514.406V517.263C158.619 520.897 155.643 523.883 151.994 523.883Z" fill="#EBEBEB"/>
    <path opacity="0.8" d="M92.2636 523.883H79.3366L64.6367 601.669H77.5638L92.2636 523.883Z" fill="#E0E0E0"/>
    <path opacity="0.8" d="M118.067 523.883H105.14L97.9062 601.669H110.833L118.067 523.883Z" fill="#E0E0E0"/>
    <path opacity="0.8" d="M133.141 523.883H146.068L160.78 601.669H147.853L133.141 523.883Z" fill="#E0E0E0"/>
    </g>
    <g opacity="0.8">
    <path opacity="0.8" d="M557.468 198.594H255.125V461.781H557.468V198.594Z" fill="#E6E6E6"/>
    <path opacity="0.8" d="M566.538 198.594H259.355V461.781H566.538V198.594Z" fill="#F0F0F0"/>
    <path opacity="0.8" d="M557.468 461.781H255.125V466.876H557.468V461.781Z" fill="#E6E6E6"/>
    <path opacity="0.8" d="M571.378 461.781H264.195V466.876H571.378V461.781Z" fill="#F0F0F0"/>
    <path opacity="0.8" d="M553.842 453.594V206.763L272.06 206.763L272.06 453.594L553.842 453.594Z" fill="#FAFAFA"/>
    <path opacity="0.8" d="M362.139 453.597L415.257 206.766H450.441L397.323 453.597H362.139Z" fill="white"/>
    <path opacity="0.8" d="M321.068 453.597L374.187 206.766H409.371L356.252 453.597H321.068Z" fill="white"/>
    <path opacity="0.8" d="M278.689 207.438V438.094C278.689 438.469 279.155 438.766 279.725 438.766H281.096C281.666 438.766 282.132 438.469 282.132 438.094V207.438C282.132 207.063 281.666 206.766 281.096 206.766H279.725C279.155 206.766 278.689 207.063 278.689 207.438Z" fill="#F0F0F0"/>
    <path opacity="0.8" d="M452.615 453.597L505.734 206.766H519.45L466.332 453.597H452.615Z" fill="white"/>
    <path opacity="0.8" d="M553.838 453.599V206.768H552.22V453.599H553.838Z" fill="#E6E6E6"/>
    <path opacity="0.5" d="M569.54 217.006H267.197L266.02 209.947H568.376L569.54 217.006Z" fill="#E0E0E0"/>
    <path opacity="0.5" d="M569.54 241.237H267.197L266.02 234.177H568.376L569.54 241.237Z" fill="#E0E0E0"/>
    <path opacity="0.5" d="M569.54 265.454H267.197L266.02 258.395H568.376L569.54 265.454Z" fill="#E0E0E0"/>
    <path opacity="0.5" d="M569.54 289.685H267.197L266.02 282.625H568.376L569.54 289.685Z" fill="#E0E0E0"/>
    <path opacity="0.5" d="M569.54 313.915H267.197L266.02 306.843H568.376L569.54 313.915Z" fill="#E0E0E0"/>
    <path opacity="0.5" d="M569.54 338.133H267.197L266.02 331.073H568.376L569.54 338.133Z" fill="#E0E0E0"/>
    <path opacity="0.5" d="M569.54 229.122H267.197L266.02 222.062H568.376L569.54 229.122Z" fill="#E0E0E0"/>
    <path opacity="0.5" d="M569.54 253.352H267.197L266.02 246.28H568.376L569.54 253.352Z" fill="#E0E0E0"/>
    <path opacity="0.5" d="M569.54 277.57H267.197L266.02 270.51H568.376L569.54 277.57Z" fill="#E0E0E0"/>
    <path opacity="0.5" d="M569.54 301.8H267.197L266.02 294.741H568.376L569.54 301.8Z" fill="#E0E0E0"/>
    <path opacity="0.5" d="M569.54 326.018H267.197L266.02 318.958H568.376L569.54 326.018Z" fill="#E0E0E0"/>
    <path opacity="0.5" d="M569.54 350.248H267.197L266.02 343.189H568.376L569.54 350.248Z" fill="#E0E0E0"/>
    </g>
    <g opacity="0.8">
    <g opacity="0.8">
    <g opacity="0.8">
    <path opacity="0.8" d="M557.468 481.732H517.432V601.669H557.468V481.732Z" fill="#E6E6E6"/>
    <path opacity="0.8" d="M533.075 601.669H557.467V587.912H507.506L533.075 601.669Z" fill="#EBEBEB"/>
    <path opacity="0.8" d="M437.462 481.732H397.426V601.669H437.462V481.732Z" fill="#E6E6E6"/>
    <path opacity="0.8" d="M557.468 481.732H416.189V598.812H557.468V481.732Z" fill="#EBEBEB"/>
    <path opacity="0.8" d="M440.581 601.669H416.189V587.912H466.151L440.581 601.669Z" fill="#EBEBEB"/>
    <path opacity="0.8" d="M538.55 495.244H435.107V555.562H538.55V495.244Z" fill="#FAFAFA"/>
    <path opacity="0.8" d="M538.55 561.69H435.107V590.394H538.55V561.69Z" fill="#FAFAFA"/>
    <path opacity="0.8" d="M496.468 498.308H477.187C474.12 498.308 471.623 495.826 471.623 492.748H502.019C502.019 495.826 499.535 498.308 496.468 498.308Z" fill="#EBEBEB"/>
    <path opacity="0.8" d="M496.468 564.768H477.187C474.12 564.768 471.623 562.285 471.623 559.208H502.019C502.019 562.272 499.535 564.768 496.468 564.768Z" fill="#EBEBEB"/>
    </g>
    </g>
    <g opacity="0.8">
    <g opacity="0.8">
    <path opacity="0.8" d="M405.359 481.732H365.322V601.669H405.359V481.732Z" fill="#E6E6E6"/>
    <path opacity="0.8" d="M380.98 601.669H405.359V587.912H355.41L380.98 601.669Z" fill="#EBEBEB"/>
    <path opacity="0.8" d="M285.366 481.732H245.33V601.669H285.366V481.732Z" fill="#E6E6E6"/>
    <path opacity="0.8" d="M405.373 481.732H264.094V598.812H405.373V481.732Z" fill="#EBEBEB"/>
    <path opacity="0.8" d="M288.473 601.669H264.094V587.912H314.042L288.473 601.669Z" fill="#EBEBEB"/>
    <path opacity="0.8" d="M386.454 495.244H283.012V555.562H386.454V495.244Z" fill="#FAFAFA"/>
    <path opacity="0.8" d="M386.454 561.69H283.012V590.394H386.454V561.69Z" fill="#FAFAFA"/>
    <path opacity="0.8" d="M344.36 498.308H325.08C322.013 498.308 319.516 495.826 319.516 492.748H349.912C349.925 495.826 347.44 498.308 344.36 498.308Z" fill="#EBEBEB"/>
    <path opacity="0.8" d="M344.36 564.768H325.08C322.013 564.768 319.516 562.285 319.516 559.208H349.912C349.925 562.272 347.44 564.768 344.36 564.768Z" fill="#EBEBEB"/>
    </g>
    </g>
    <path opacity="0.8" d="M264.507 481.729L557.469 481.729V476.699L264.507 476.699V481.729Z" fill="#F0F0F0"/>
    <path opacity="0.8" d="M264.507 476.702H245.33V481.731H264.507V476.702Z" fill="#E0E0E0"/>
    </g>
    <g opacity="0.8">
    <path opacity="0.8" d="M109.201 488.507C107.376 441.52 105.435 394.805 109.408 371.246L115.904 366.656C115.904 366.656 114.48 371.053 113.73 443.033C112.979 515.013 112.06 477.814 112.85 488.507H109.201Z" fill="#E6E6E6"/>
    <path opacity="0.8" d="M119.657 321.867C129.659 295.827 152.964 270.678 178.275 260.386C188.213 256.352 173.888 345.167 137.863 350.882C120.265 353.675 114.791 398.697 111.815 420.315C110.806 377.789 109.654 347.921 119.657 321.867Z" fill="#E6E6E6"/>
    <path opacity="0.8" d="M117.521 387.978C124.56 376.832 136.064 361.226 152.873 361.2C171.934 361.187 155.254 392.529 132.855 402.55C121.92 407.437 112.798 422.953 110.43 432.676C110.637 412.997 110.481 399.123 117.521 387.978Z" fill="#E6E6E6"/>
    <path opacity="0.8" d="M100.389 354.283C88.1479 332.612 60.8704 310.825 31.833 300.908C20.4329 297.016 19.3071 361.213 80.7851 376.574C100.635 381.539 108.593 416.656 112.708 434.305C112.359 400.015 112.63 375.953 100.389 354.283Z" fill="#E6E6E6"/>
    <path opacity="0.8" d="M107.092 405.679C99.2891 391.87 78.0804 385.107 59.0198 386.4C51.5276 386.905 50.7123 415.26 92.3662 426.211C104.996 429.534 110.094 451.761 112.721 463.01C112.488 441.145 114.882 419.488 107.092 405.679Z" fill="#E6E6E6"/>
    <path opacity="0.8" d="M107.894 332.703C101.825 313.385 83.9548 296.072 67.5598 288.922C61.1157 286.116 59.1359 318.144 94.3456 349.498C105.021 359.015 108.386 386.724 110.132 400.765C110.922 375.694 113.963 352.02 107.894 332.703Z" fill="#E6E6E6"/>
    <g opacity="0.8">
    <path opacity="0.8" d="M111.104 507.773C98.2935 507.773 87.7086 506.842 86.971 489.529L84.8359 466.811H137.359L135.224 489.529C134.5 506.842 123.915 507.773 111.104 507.773Z" fill="#F0F0F0"/>
    <path opacity="0.8" d="M137.566 476.172H84.6546L83.1406 465.531H139.08L137.566 476.172Z" fill="#F0F0F0"/>
    </g>
    </g>
    </g>
    <path opacity="0.8" d="M323.499 660.061C462.064 660.061 574.393 653.508 574.393 645.424C574.393 637.34 462.064 630.787 323.499 630.787C184.934 630.787 72.6055 637.34 72.6055 645.424C72.6055 653.508 184.934 660.061 323.499 660.061Z" fill="#F5F5F5"/>
    <path d="M482.547 500.519C499.097 472.591 481.149 433.478 461.118 412.053C461.26 408.821 460.743 405.666 459.578 402.718C466.566 392.555 472.091 381.293 475.274 369.346C478.354 357.761 477.422 347.378 473.437 336.103C464.405 310.541 454.777 285.16 445.383 259.726C437.515 242.931 435.277 240.409 430.929 234.384C430.929 234.345 430.942 234.306 430.929 234.268C429.868 218.092 427.772 201.995 424.511 186.117C422.738 177.519 420.745 168.907 418.183 160.516C416.643 155.486 414.612 150.56 409.643 148.09C398.217 142.375 386.907 152.098 379.052 159.352C365.983 171.416 352.94 183.518 339.883 195.594C339.262 196.163 338.913 196.784 338.719 197.418C334.837 197.107 330.954 196.849 327.06 196.681C322.349 196.487 317.587 196.435 312.813 196.551C312.709 195.737 312.295 194.922 311.48 194.198C299.329 183.57 286.881 173.278 274.109 163.399C267.678 158.421 261.273 153.236 254.518 148.698C250.235 145.815 245.24 143.487 240.271 146.215C235.6 148.788 234.099 154.49 232.429 159.145C229.557 167.188 226.865 175.282 224.394 183.453C219.438 199.797 215.323 216.373 211.945 233.117C211.583 234.901 212.282 236.336 213.382 237.267C213.33 237.345 213.278 237.435 213.226 237.513C211.182 239.97 209.228 242.556 207.39 245.284C207.093 245.736 206.912 246.176 206.795 246.616C188.084 234.992 157.39 233.013 141.888 250.831C134.81 258.964 131.562 274.066 135.716 284.151C138.498 290.9 145.136 295.465 152.02 295.374C158.374 333.491 130.152 367.419 127.551 404.786C125.506 434.189 143.208 461.316 171.611 469.345C162.644 489.878 156.627 511.367 153.948 533.632C151.166 556.66 150.623 582.52 158.736 604.591C165.491 622.978 179 637.873 198.436 642.683C209.331 645.372 220.9 645.915 232.041 646.794C245.162 647.842 258.296 648.553 271.443 649.005C272.168 649.031 272.776 648.902 273.307 648.656C279.389 652.768 286.104 656.001 293.325 658.212L295.02 658.729C302.305 660.966 309.655 662.026 316.902 662.026C331.485 662.026 345.577 657.707 357.546 649.975C397.867 652.574 445.642 651.578 473.941 617.909C501.918 584.628 498.113 538.339 482.547 500.519Z" fill="#B6A1CC"/>
    <path d="M394.866 502.045C393.999 502.097 393.041 501.954 391.993 501.579C373.489 494.804 351.129 488.675 346.483 466.772C311.17 456.596 274.136 476.651 263.46 511.91L245.15 572.461C234.397 608.005 254.519 645.527 290.091 656.259L297.712 658.561C333.284 669.305 370.836 649.2 381.576 613.655L399.887 553.105C405.244 535.391 402.927 517.186 394.866 502.045Z" fill="#E7AD47"/>
    <path d="M407.287 403.881C364.391 412.583 320.188 414.561 276.671 409.829C264.249 408.471 251.891 406.545 239.637 404.101C237.359 403.649 236.208 406.545 237.579 407.747C237.553 408.122 237.644 408.536 237.89 408.963C241.164 414.303 245.473 418.544 250.429 421.957C249.808 433.568 255.993 444.585 264.456 452.2C274.122 460.876 286.467 465.621 298.449 470.134C299.847 470.664 300.804 469.668 300.972 468.505C302.37 468.608 303.754 468.996 305.191 468.944C307.235 468.867 309.332 468.66 311.35 468.376C315.193 467.832 319.011 467.108 322.867 466.656C326.606 466.216 330.372 465.996 334.151 466.061C337.398 466.113 341.035 466.94 344.192 465.867C347.466 464.755 348.604 462.066 350.067 459.234C351.451 456.558 353.431 454.269 355.773 452.381C361.04 448.14 367.717 446.227 374.29 445.218C378.03 444.649 382.003 444.442 385.652 443.447C387.903 442.826 389.314 441.52 391.19 438.158C392.549 435.702 393.713 433.142 394.671 430.491C395.473 428.267 396.12 425.966 396.573 423.651C396.987 421.556 397.142 419.423 396.366 417.458C400.313 415.014 404.143 412.35 407.805 409.454C408.374 409.002 408.568 408.459 408.517 407.928C411.04 407.295 409.914 403.351 407.287 403.881ZM392.186 423.987C391.695 426.095 391.061 428.164 390.31 430.181C389.314 432.818 388.059 435.327 386.596 437.745C386.415 437.926 386.234 438.107 386.014 438.288C384.862 439.219 383.31 439.49 381.873 439.542C378.418 439.684 375.054 439.839 371.638 440.408C365.349 441.456 359.047 443.447 353.884 447.274C351.49 449.045 349.394 451.075 347.621 453.467C346.832 454.541 346.12 455.691 345.538 456.894C344.955 458.096 344.503 459.842 343.416 460.695C342.445 461.458 340.983 461.393 339.831 461.368C338.058 461.316 336.286 461.122 334.5 461.044C330.851 460.889 327.202 461.018 323.566 461.251C319.554 461.523 315.53 461.936 311.57 462.673C309.552 463.048 307.546 463.579 305.579 464.186C304.673 464.471 303.69 464.781 302.836 465.208C301.995 465.634 301.296 466.216 300.481 466.656C300.261 466.397 299.963 466.177 299.588 466.035C288.498 461.846 276.917 457.489 267.885 449.563C260.612 443.175 255.1 434.318 254.66 424.582C267.057 431.551 282.429 434.318 295.9 436.103C296.12 436.128 296.327 436.154 296.547 436.18C296.56 436.193 296.573 436.206 296.586 436.219C298.074 437.163 299.678 436.995 301.348 436.736C301.464 436.749 301.581 436.762 301.697 436.775C301.723 436.736 301.749 436.697 301.762 436.672C303.573 436.387 305.359 436.012 307.158 435.663C311.078 434.874 315.025 434.577 319.024 434.564C327.008 434.538 334.901 435.637 342.769 436.853C343.61 436.982 344.244 436.581 344.593 436.012C354.143 434.603 363.55 432.301 372.647 428.965C379.57 426.431 386.247 423.315 392.613 419.669C392.924 421.078 392.497 422.63 392.186 423.987ZM341.112 432.275C340.556 432.353 339.986 432.405 339.43 432.469C333.788 431.112 328.004 430.349 322.194 430.232C318.687 430.168 315.219 430.362 311.738 430.892C309.992 431.163 308.283 431.655 306.601 432.211C305.281 432.366 303.961 432.521 302.642 432.637C302.551 432.624 302.448 432.624 302.357 432.612C290.866 431.461 279.194 429.508 268.234 425.797C258.555 422.526 249.161 417.38 243.079 409.04C285.38 417.031 328.845 418.686 371.625 413.786C381.433 412.661 391.203 411.187 400.908 409.402C383.413 422.022 362.437 429.56 341.112 432.275Z" fill="#52904C"/>
    <path d="M297.194 283.129C281.381 265.765 256.847 258.731 234.189 264.847C228.922 266.269 231.161 274.441 236.44 273.018C256.303 267.652 277.37 273.923 291.189 289.116C294.877 293.163 300.856 287.164 297.194 283.129Z" fill="#3B1366"/>
    <path d="M410.057 265.39C388.382 262.7 365.867 267.614 349.704 282.897C345.732 286.646 351.736 292.633 355.696 288.883C370.305 275.074 390.634 271.441 410.057 273.859C415.453 274.531 415.401 266.049 410.057 265.39Z" fill="#3B1366"/>
    <path d="M368.467 324.027C367.523 336.478 349.407 333.362 341.604 331.423C336.557 330.168 332.145 328.061 327.331 326.173C324.665 325.126 322.66 324.337 319.8 325.436C316.655 326.651 314.093 329.108 310.897 330.388C307.261 331.836 303.392 332.547 299.471 332.534C290.788 332.509 282.791 329.134 276.774 322.915C272.97 318.984 266.979 324.983 270.783 328.901C277.421 335.767 286.13 339.892 295.641 340.81C300.442 341.262 305.398 340.887 310.056 339.607C314.326 338.443 320.434 333.453 324.174 334.047C326.632 334.435 329.738 336.543 332.132 337.409C335.289 338.547 338.511 339.478 341.785 340.176C347.207 341.327 352.926 342.167 358.465 341.534C368.221 340.422 376.167 334.164 376.93 324.052C377.357 318.596 368.868 318.622 368.467 324.027Z" fill="#3B1366"/>
    <path d="M331.847 307.645C331.731 307.308 331.549 307.024 331.342 306.778C331.174 305.718 330.372 305.033 329.285 304.942C326.697 304.697 324.083 304.645 321.495 304.774C320.201 304.839 318.803 304.891 317.574 305.33C316.63 305.666 315.866 306.261 315.53 307.231C315.504 307.295 315.517 307.347 315.491 307.399C314.818 308.213 314.714 309.545 315.568 310.295C318.648 313.049 322.905 315.26 327.098 313.76C328.961 313.101 330.721 311.834 331.562 309.998C331.899 309.248 332.119 308.459 331.847 307.645Z" fill="#D43594"/>
    <path d="M445.292 306.248C431.356 306.739 417.704 310.075 405.1 316.023C402.629 317.187 404.79 320.833 407.235 319.682C419.14 314.071 432.132 310.942 445.292 310.489C448.009 310.386 448.022 306.145 445.292 306.248Z" fill="#3B1366"/>
    <path d="M451.284 335.832C438.111 328.061 422.454 326.677 407.482 327.518C404.765 327.673 404.752 331.914 407.482 331.759C421.729 330.957 436.61 332.095 449.149 339.491C451.504 340.874 453.639 337.215 451.284 335.832Z" fill="#3B1366"/>
    <path d="M442.925 361.097C432.599 351.541 420.448 344.223 407.172 339.53C404.597 338.624 403.484 342.71 406.046 343.615C418.598 348.05 430.153 355.045 439.923 364.096C441.929 365.932 444.931 362.946 442.925 361.097Z" fill="#3B1366"/>
    <path d="M239.688 338.443C232.338 341.96 224.923 345.361 217.638 349.02C211.582 352.059 205.863 355.692 201.838 361.252C200.234 363.463 203.909 365.583 205.5 363.385C209.279 358.161 215.115 354.968 220.782 352.175C227.757 348.736 234.809 345.451 241.823 342.09C244.294 340.926 242.146 337.28 239.688 338.443Z" fill="#3B1366"/>
    <path d="M235.613 326.406C222.35 326.276 209.229 329.742 197.764 336.4C195.409 337.771 197.531 341.43 199.899 340.06C210.743 333.776 223.074 330.517 235.613 330.647C238.344 330.66 238.344 326.432 235.613 326.406Z" fill="#3B1366"/>
    <path d="M240.685 315.247C233.904 314.032 227.926 310.489 221.469 308.265C214.598 305.899 207.274 305.33 200.066 304.787C197.349 304.58 197.362 308.821 200.066 309.028C207.119 309.558 214.21 310.153 220.913 312.558C227.15 314.795 232.96 318.156 239.546 319.333C242.225 319.811 243.364 315.726 240.685 315.247Z" fill="#3B1366"/>
    <path d="M232.921 221.816C231.691 222.243 230.462 222.695 229.271 223.2C230.811 217.213 232.364 211.24 233.904 205.253C236.026 197.055 237.864 188.729 240.503 180.673C241.72 176.988 243.195 173.394 245.227 170.071C246.132 168.597 247.129 166.968 248.384 165.765C249.704 164.498 251.645 166.088 253.003 166.851C260.133 170.821 265.853 176.781 271.534 182.535C277.292 188.38 283.037 194.211 288.795 200.055C268.855 204.102 249.73 211.071 232.921 221.816Z" fill="#3B1366"/>
    <path d="M358.452 199.926C357.857 199.848 357.275 199.771 356.68 199.693C368.352 189.66 380.036 179.626 391.708 169.593C393.908 167.705 397.997 163.102 401.349 164.02C402.914 164.446 403.626 166.257 404.221 167.588C405.14 169.644 405.916 171.765 406.706 173.872C409.643 181.811 411.959 189.996 413.629 198.297C414.948 204.878 415.803 211.524 416.268 218.209C412.399 215.442 408.259 212.972 403.781 210.929C389.483 204.374 373.877 202.059 358.452 199.926Z" fill="#3B1366"/>
    <path opacity="0.8" d="M207.028 246.68C206.627 246.499 206.07 246.021 205.643 245.93C186.854 234.927 157.079 233.363 141.888 250.818C134.81 258.951 131.562 274.053 135.715 284.138C138.497 290.887 145.136 295.452 152.02 295.361C153.184 295.245 153.184 295.245 156.018 293.835C156.018 293.835 158.839 293.835 160.418 294.353C166.189 296.034 172.788 294.883 178.521 292.982C179.608 292.62 180.345 291.974 180.824 291.198C181.743 291.922 182.83 292.413 184.059 292.698C184.68 292.814 185.237 292.814 185.948 292.788C186.298 292.788 186.634 292.775 186.971 292.762C186.945 292.827 186.932 292.892 186.906 292.956C186.971 292.956 187.022 292.969 187.087 292.956C182.701 304.373 178.663 315.971 175.441 327.647C170.873 344.158 168.881 362.286 174.6 378.785C177.447 387.021 185.107 394.494 185.314 403.222C185.56 413.837 182.338 425.642 180.889 436.18C180.151 441.507 188.316 443.822 189.067 438.43C190.465 428.319 191.94 418.221 193.247 408.097C194.243 400.352 193.117 394.96 188.899 388.379C178.404 371.983 177.926 353.352 182.351 334.81C186.583 317.07 193.583 299.706 200.26 282.768C202.007 278.346 203.844 273.962 205.773 269.605C207.662 265.416 209.357 261.278 210.651 258.434C211.673 256.274 213.588 250.546 207.028 246.68ZM195.33 272.566C193.596 276.703 191.888 280.88 190.206 285.082C190.193 284.991 190.193 284.901 190.18 284.81C190.115 284.966 190.05 285.108 189.999 285.263C189.753 285.095 189.481 284.94 189.196 284.823C189.119 285.134 189.028 285.457 188.951 285.767C188.032 285.922 187.178 285.405 185.806 284.772C183.102 283.505 182.028 267.717 181.678 265.545C180.798 260.179 172.633 262.455 173.5 267.795C174.238 272.307 174.652 279.264 176.619 284.733C176.502 284.759 176.399 284.772 176.282 284.81C171.093 286.53 163.73 288.689 159.279 284.151C155.307 280.091 157.83 273.174 159.292 268.532C160.935 263.321 152.757 261.084 151.114 266.282C149.018 272.902 147.413 280.673 150.829 286.853C148.746 286.608 146.74 285.522 145.278 283.841C141.72 279.781 142.147 273.51 143.169 268.609C145.226 258.731 150.389 252.796 159.784 249.253C174.38 243.732 190.607 246.073 203.456 254.529C203.56 254.593 203.573 254.684 203.547 254.697C200.597 260.515 197.866 266.489 195.33 272.566Z" fill="#9778B5"/>
    <path d="M392.186 423.987C391.695 426.095 391.061 428.164 390.31 430.181C389.314 432.818 388.059 435.327 386.596 437.745C386.415 437.926 386.234 438.107 386.014 438.288C384.862 439.219 383.31 439.49 381.873 439.542C378.418 439.684 375.054 439.839 371.638 440.408C365.349 441.456 359.047 443.447 353.884 447.274C351.49 449.045 349.394 451.075 347.621 453.467C346.832 454.541 346.12 455.691 345.538 456.894C344.955 458.096 344.503 459.842 343.416 460.695C342.445 461.458 340.983 461.393 339.831 461.367C338.058 461.316 336.286 461.122 334.5 461.044C330.851 460.889 327.202 461.018 323.566 461.251C319.554 461.523 315.53 461.936 311.57 462.673C309.552 463.048 307.546 463.579 305.579 464.186C304.673 464.471 303.69 464.781 302.836 465.208C301.995 465.634 301.296 466.216 300.481 466.656C300.261 466.397 299.963 466.177 299.588 466.035C288.498 461.846 276.917 457.489 267.885 449.563C260.613 443.175 255.1 434.318 254.66 424.582C267.057 431.551 282.429 434.318 295.9 436.103C296.12 436.128 296.327 436.154 296.547 436.18C296.56 436.193 296.573 436.206 296.586 436.219C298.074 437.163 299.678 436.995 301.348 436.736C301.464 436.749 301.581 436.762 301.697 436.775C301.723 436.736 301.749 436.697 301.762 436.671C303.573 436.387 305.359 436.012 307.158 435.663C311.079 434.874 315.025 434.577 319.024 434.564C327.008 434.538 334.901 435.637 342.769 436.852C343.61 436.982 344.244 436.581 344.593 436.012C354.143 434.603 363.55 432.301 372.647 428.965C379.57 426.431 386.247 423.315 392.614 419.669C392.924 421.078 392.497 422.63 392.186 423.987Z" fill="#6FB353"/>
    <path d="M341.114 432.275C340.557 432.353 339.988 432.405 339.431 432.469C333.789 431.112 328.005 430.349 322.195 430.232C318.689 430.168 315.221 430.362 311.74 430.892C309.993 431.163 308.285 431.655 306.603 432.211C305.283 432.366 303.963 432.521 302.643 432.637C302.552 432.624 302.449 432.624 302.358 432.612C290.868 431.461 279.196 429.508 268.235 425.797C258.556 422.526 249.162 417.38 243.08 409.04C285.381 417.031 328.846 418.686 371.626 413.786C381.435 412.661 391.204 411.187 400.909 409.402C383.414 422.022 362.439 429.56 341.114 432.275Z" fill="#6FB353"/>
    <path d="M303.781 470.729C315.996 464.703 329.389 463.915 343.494 465.376C343.921 465.415 344.335 465.505 344.723 465.609C347.143 461.626 348.566 456.971 348.566 451.968C348.566 437.434 336.778 425.655 322.233 425.655C307.689 425.655 295.9 437.434 295.9 451.968C295.9 459.312 298.915 465.958 303.781 470.729Z" fill="#E7AD47"/>
    <path d="M297.039 468.931C293.648 463.915 291.85 458.044 291.85 451.954C291.85 435.21 305.475 421.595 322.233 421.595C338.99 421.595 352.616 435.21 352.616 451.954C352.616 456.053 351.814 460.023 350.222 463.772L343.713 461.018C344.93 458.148 345.551 455.096 345.551 451.954C345.551 439.102 335.095 428.655 322.233 428.655C309.37 428.655 298.915 439.102 298.915 451.954C298.915 456.622 300.287 461.122 302.9 464.975L297.039 468.931Z" fill="#DE912F"/>
    <path d="M316.384 662C309.137 662 301.775 660.94 294.502 658.703L292.807 658.186C273.734 652.328 258.076 639.411 248.734 621.788C239.391 604.178 237.463 583.968 243.325 564.91L259.978 510.721C270.796 475.5 306.407 453.196 342.781 458.846L341.267 468.608C309.707 463.721 278.819 483.051 269.438 513.617L252.784 567.806C247.698 584.343 249.368 601.863 257.481 617.146C265.594 632.429 279.168 643.64 295.719 648.721L297.414 649.238C331.575 659.724 367.898 640.472 378.392 606.337L395.046 552.148C400.132 535.611 398.462 518.091 390.349 502.808L399.083 498.179C408.426 515.789 410.354 535.986 404.492 555.057L387.839 609.246C377.991 641.325 348.333 662 316.384 662Z" fill="#DE912F"/>
    <path d="M322.816 549.161C319.399 550.752 315.97 552.303 312.515 553.816C313.887 551.437 315.052 548.928 316.035 546.368C316.617 544.868 317.329 543.304 317.64 541.726C318.74 540.11 319.736 538.455 320.719 536.749C321.651 535.119 320.046 532.404 318.028 533.244C315.078 534.486 311.778 534.951 308.633 535.52C305.567 536.076 302.5 536.632 299.42 537.175C296.302 537.744 293.235 538.287 290.052 538.391C289.43 538.404 288.809 538.455 288.188 538.442C287.826 538.455 287.464 538.429 287.101 538.378C287.049 538.352 287.024 538.352 286.972 538.339C286.959 538.171 286.894 537.873 286.765 537.395C286.571 536.697 286.208 536.089 285.704 535.572C285.057 535.016 284.785 534.822 284.888 534.964C283.905 534.046 282.611 533.762 281.265 534.447C280.735 534.719 280.23 535.093 279.842 535.559C278.768 536.852 278.043 539.037 279.195 540.576C283.957 546.924 291.591 542.541 297.725 541.377C301.128 540.731 304.531 540.084 307.922 539.425C308.297 539.347 308.672 539.283 309.047 539.205C308.297 539.787 307.559 540.382 306.809 540.951C303.147 543.744 299.614 546.666 295.887 549.381C291.863 552.316 287.748 555.174 283.84 558.251C279.907 561.341 275.688 564.276 272.376 568.026C269.05 571.801 273.204 577.542 277.81 575.06C279.7 574.038 281.511 572.952 283.465 572.008C285.406 571.064 287.347 570.133 289.275 569.164C293.157 567.237 297.117 565.466 300.973 563.474C301.452 563.229 301.905 562.957 302.383 562.712C301.607 564.69 300.818 566.655 300.132 568.659C298.294 573.986 296.522 579.378 294.956 584.796C293.351 590.33 292.51 595.98 291.863 601.695C291.773 602.536 293.131 602.704 293.325 601.889C294.645 596.394 296.703 591.106 298.631 585.804C300.624 580.335 303.108 575.15 305.424 569.823C307.055 566.073 308.426 562.078 310.16 558.315C314.625 555.639 318.972 552.769 323.165 549.704C323.501 549.484 323.204 548.98 322.816 549.161ZM298.941 559.544C298.385 559.764 297.816 559.996 297.259 560.216C298.747 558.936 300.235 557.643 301.736 556.376C303.095 555.225 304.506 554.113 305.916 553.001C305.605 554.437 305.101 555.846 304.557 557.229C302.694 558.018 300.818 558.781 298.941 559.544Z" fill="#DE912F"/>
    <path d="M326.788 517.47C326.698 516.151 326.478 514.897 325.87 513.708C325.3 512.596 324.446 511.626 323.67 510.656C320.81 507.075 317.679 503.971 313.137 502.756C312.218 502.51 311.053 503.428 311.454 504.437C312.36 506.7 314.638 508.587 314.715 511.109C314.78 513.345 314.715 517.03 311.959 517.651C311.209 517.819 311.312 518.854 311.933 519.073C311.933 519.371 312.063 519.642 312.386 519.797C313.408 520.289 314.405 520.832 315.505 521.129C316.695 521.452 317.886 521.776 319.011 522.306C319.904 522.733 320.862 523.211 321.496 523.974C322.182 524.788 322.609 525.693 323.023 526.663C323.644 528.086 326.115 527.723 326.387 526.224C326.905 523.366 326.969 520.353 326.788 517.47Z" fill="#DE912F"/>
    <path d="M371.728 532.236C370.421 531.615 369.619 529.999 368.674 528.952C367.833 528.034 366.888 527.271 365.737 526.78C362.566 525.409 358.801 525.241 355.423 524.711C348.19 523.56 340.866 522.383 333.516 522.978C332.856 523.03 332.313 523.599 332.507 524.297C332.817 525.357 333.438 526.418 334.292 527.051C335.263 528.254 336.725 528.848 338.407 529.133C341.668 529.689 345.058 529.598 348.358 529.934C352.163 530.322 355.954 530.904 359.694 531.667C363.42 532.43 367.082 533.813 370.835 534.369C372 534.512 373.022 532.857 371.728 532.236Z" fill="#DE912F"/>
    <path d="M361.636 542.541C360.445 541.041 359.035 539.709 357.21 539.037C355.153 538.274 352.772 538.416 350.611 538.326C346.949 538.184 343.248 537.964 339.56 538.003C339.069 536.942 338.24 536.024 337.115 535.637C335.148 534.951 333.22 536.141 331.512 537.007C330.813 537.356 330.036 537.667 329.571 538.326C329.027 539.115 329.014 540.188 328.885 541.093C328.535 543.653 328.251 546.213 328.044 548.786C327.824 551.489 327.384 554.424 327.72 557.126C327.798 557.785 328.445 558.251 329.04 558.303C329.066 558.729 329.325 559.195 329.713 559.376C330.696 559.88 331.68 560.346 332.715 560.746C333.685 561.134 334.695 561.638 335.756 561.328C336.908 560.979 337.542 559.686 337.93 558.432C339.625 558.897 341.333 559.363 343.028 559.828C344.969 560.358 347.557 561.522 349.563 560.824C351.426 560.177 352.992 558.122 354.377 556.803C356.123 555.135 357.87 553.467 359.63 551.812C360.51 550.984 361.364 550.131 362.283 549.329C362.93 548.76 363.59 548.191 363.81 547.325C364.25 545.567 362.658 543.847 361.636 542.541ZM342.951 554.178C341.527 554.359 340.091 554.437 338.654 554.501C338.913 551.308 338.577 548.062 339.289 544.907C339.457 544.157 339.664 543.382 339.819 542.619C340.117 542.606 340.401 542.606 340.699 542.593C342.795 542.554 344.904 542.567 347.001 542.67C349.006 542.774 351.012 542.903 353.005 543.084C353.988 543.175 355.153 543.123 356.098 543.394C356.188 543.433 356.292 543.459 356.382 543.498C356.382 543.498 356.382 543.498 356.382 543.511C356.188 543.718 355.994 543.912 355.8 544.119C354.454 545.541 353.095 546.963 351.75 548.398C350.417 549.808 349.201 551.411 347.751 552.704C346.47 553.816 344.581 553.958 342.951 554.178Z" fill="#DE912F"/>
    <path d="M361.985 571.439C359.281 570.03 356.343 568.983 353.38 568.181C344.231 565.091 334.345 564.315 324.718 565.479C324.679 565.479 324.653 565.505 324.614 565.517C324.071 564.134 323.178 562.867 321.793 561.794C321.237 561.367 320.629 561.703 320.344 562.233C320.189 562.324 320.046 562.44 319.943 562.621C318.481 565.194 317.407 567.651 316.941 570.586C316.488 573.43 316.462 576.197 316.436 579.068C316.41 584.925 317.135 590.614 317.86 596.407C317.924 596.924 318.313 597.415 318.856 597.415C318.985 597.764 319.322 598.036 319.775 597.933C320.318 597.803 320.862 597.674 321.405 597.545C324.2 597.545 326.814 597.92 329.299 599.484C331.848 601.087 333.841 603.208 335.794 605.484C337.386 607.333 339.418 610.539 341.889 611.328C344.024 612.013 346.638 609.401 348.062 608.108C352.371 604.204 355.334 598.799 358.53 594.015C360.277 591.39 362.05 588.791 363.641 586.076C364.534 584.537 365.647 582.74 366.191 580.891C366.863 580.684 367.42 580.115 367.485 579.158C367.717 575.499 364.961 572.991 361.985 571.439ZM324.64 575.422C325.054 573.327 325.391 571.142 325.3 569.06C325.442 569.047 325.585 569.034 325.714 569.008C325.999 568.983 326.284 568.957 326.568 568.944C326.84 568.931 327.086 568.918 327.345 568.802C327.474 568.737 327.591 568.672 327.72 568.608C327.772 568.582 327.798 568.517 327.849 568.465C331.123 568.349 334.423 568.272 337.723 568.375C336.571 570.819 335.484 573.224 334.617 575.835C334.462 576.327 334.319 576.818 334.177 577.297C330.942 576.883 327.694 576.689 324.433 576.702C324.498 576.275 324.563 575.848 324.64 575.422ZM339.275 582.74C340.854 582.986 342.433 583.27 343.998 583.619C342.161 583.942 340.323 584.266 338.499 584.654C338.771 584.02 339.029 583.386 339.275 582.74ZM330.774 590.071C330.502 590.808 330.243 591.545 329.959 592.269C329.583 593.2 329.506 593.821 328.47 594.015C327.008 594.286 325.533 594.299 324.071 594.635C324.084 594.506 324.084 594.364 324.058 594.235C323.877 593.355 323.773 592.45 323.709 591.532C326.167 590.02 328.807 588.869 331.537 587.964C331.291 588.662 331.033 589.36 330.774 590.071ZM332.314 585.61C332.236 585.869 332.145 586.115 332.068 586.36C329.143 587.317 326.309 588.558 323.644 590.252C323.566 588.3 323.618 586.309 323.631 584.447C323.644 583.567 323.683 582.714 323.747 581.848C324.86 581.783 325.973 581.744 327.099 581.744C329.066 581.731 331.033 581.835 332.999 582.003C332.805 583.193 332.676 584.408 332.314 585.61ZM356.11 577.594C355.217 579.339 354.338 581.085 353.483 582.856C351.879 586.153 350.236 589.308 348.087 592.295C347.039 593.743 345.991 595.204 344.943 596.653C344.361 597.467 343.856 598.282 343.326 599.135C342.911 599.807 342.394 600.751 341.475 600.764C339.909 600.79 338.46 598.45 337.658 597.364C336.61 595.954 335.639 594.532 334.785 592.993C335.794 590.757 336.868 588.545 337.826 586.296C341.41 585.572 345.072 585.119 348.657 584.783C348.89 584.757 349.084 584.667 349.226 584.55C350.08 584.628 350.934 584.524 351.749 584.253C352.578 583.981 352.811 582.805 351.995 582.352C349.731 581.072 347.026 580.219 344.555 579.482C343.377 579.133 342.187 578.822 340.996 578.538C341.566 577.141 342.135 575.745 342.73 574.361C343.222 573.198 343.766 570.664 345.176 570.457C346.871 570.198 348.941 570.612 350.624 570.87C352.228 571.116 353.949 571.413 355.541 571.982C356.201 572.293 356.848 572.616 357.495 572.978C357.624 573.056 357.78 573.146 357.935 573.224C358.051 573.314 358.155 573.405 358.271 573.495C357.378 574.723 356.783 576.275 356.11 577.594Z" fill="#DE912F"/>
    <path opacity="0.8" d="M462.618 413.708C459.81 410.695 458.115 410.876 456.562 412.118C454.958 414.031 454.699 416.462 455.954 418.531C457.378 420.871 458.167 421.44 458.956 422.436C474.756 441.598 487.812 471.931 475.908 494.946C468.273 509.699 454.104 510.863 439.08 510.436C428.69 510.139 417.639 509.557 408.063 505.355C411.699 503.674 411.143 497.144 406.329 497.274C398.151 497.481 385.612 496.265 374.51 492.541C374.51 492.218 374.497 491.895 374.445 491.572C373.656 486.257 381.019 484.046 384.875 483.568C387.165 483.284 389.093 481.823 389.119 479.327C389.145 477.258 387.152 474.802 384.875 475.086C379.789 475.72 374.717 476.961 370.835 480.53C368.247 482.909 366.746 485.883 366.267 489.115C360.353 486.089 355.488 482.068 352.874 476.832C355.902 469.539 364.417 466.953 371.391 464.768C376.58 463.139 374.367 454.967 369.14 456.596C362.54 458.665 355.863 461.186 350.907 465.583C350.907 465.57 350.907 465.557 350.907 465.544C351.942 455.239 361.764 447.545 371.559 446.033C378.625 444.934 385.586 446.537 391.979 449.537C398.526 453.17 404.673 457.372 410.367 462.247C414.481 465.777 420.512 459.816 416.358 456.26C415.711 455.704 415.038 455.161 414.378 454.618C409.254 452.627 404.479 448.657 401.244 445.024C399.859 444.197 398.462 443.395 397.025 442.671C396.65 442.464 396.301 442.231 395.925 442.024C395.9 442.012 395.874 441.999 395.848 441.986C384.914 437.809 382.08 437.809 374.885 437.305C373.682 437.344 372.465 437.434 371.249 437.589C358.607 439.206 346.21 448.218 343.079 460.98C342.872 461.846 342.69 462.686 342.548 463.527L342.535 463.617C338.265 489.529 368.053 501.644 391.862 504.838C391.927 504.954 405.579 511.781 412.89 515.026C420.227 518.285 431.006 518.647 439.054 518.879C453.34 519.293 466.668 518 476.503 508.277C476.645 508.652 482.649 500.816 482.507 500.493C498.682 473.302 482.028 435.443 462.618 413.708Z" fill="#9778B5"/>
    </g>
    <defs>
    <clipPath id="clip0">
    <rect width="647" height="517" fill="white" transform="translate(0 145)"/>
    </clipPath>
    </defs>
    </svg>
    